# xmcd CD database file
#
# Track frame offsets:
#	150
#	20370
#	35762
#	53776
#	74956
#	101888
#	118227
#	130983
#	149505
#	174255
#	192781
#	206041
#	244180
#	281985
#
# Disc length: 3982 seconds
#
# Revision: 8
# Processed by: cddbd v1.5.2PL0 Copyright (c) Steve Scherf et al.
# Submitted via: CDex 1.50
#
DISCID=e60f8c0e
DTITLE=Rory Gallagher - Etched In Blue - Best Of
DYEAR=1992
DGENRE=Rock
TTITLE0=Loanshark Blues
TTITLE1=Bought and Sold
TTITLE2=Bad Penny
TTITLE3=Cruise On Out
TTITLE4=Crest Of A Wave
TTITLE5=I'm Not Suprised
TTITLE6=Unmilitary Two-Step
TTITLE7=Alexis
TTITLE8=Edged In Blue
TTITLE9=They Don't Make Them Like You Any More
TTITLE10=The Devil Made Me Do It
TTITLE11=To Much Alchohol - Live
TTITLE12=I Could Have Had Religion - Live
TTITLE13=Shin Kicker - Live
EXTD=YEAR: 1992
EXTT0=
EXTT1=
EXTT2=
EXTT3=
EXTT4=
EXTT5=
EXTT6=
EXTT7=
EXTT8=
EXTT9=
EXTT10=
EXTT11=
EXTT12=
EXTT13=
PLAYORDER=
